<?xml version="1.0" encoding="UTF-8"?>
<svg xmlns="http://www.w3.org/2000/svg" viewBox="0 0 748.25 177.78">
  <defs>
    <mask id="memo-cut" maskUnits="userSpaceOnUse" x="0" y="0" width="748.25" height="177.78">
      <rect width="748.25" height="177.78" fill="#fff"/>
      <path fill="#000" d="M0,177.78V0h748.25v177.78H0ZM149.91,169.36c-11.05.76-15.65-3.76-19.28,4.18l53.92.57c1.07.01,5-2.56,4.2-3.07-7.79-4.93-10.88,1.18-16.3-4.25l.06-158.73c7.19-.42,11.1.66,17.76-3.5-7.11-2.48-38.69-3.38-44.14-.92l-49.21,140.39L43.98,2.72c-14.95-.46-28.43-.03-43.81.96,5.21,7.17,11.02,3.15,18.78,4.09l.1,160.39c-6.08,2.28-12.2-2.37-17.59,5.14l39.06.86-.07-4.71-16.04-1.09.93-152.8,60.09,160.24c.8,2.13,7.08-2.2,7.77-4.15L149.5,10.76l.41,158.6ZM301.45,112c.8-18.77.8-34.6-.16-52.46-8.34,8.38-4.55,17.3-14.3,20.91-7.52,2.78-16.67,3.05-25.41,2.22V7.89s40.46-.25,40.46-.25c16.68-.1,28.67,10.1,32.68,25.97,1.5,5.93-2.06,12.53,6.14,17.76l.5-47.95-124.72.35c5.89,8.69,13.78,1.55,22,4.18v160.43c-8.21,3.53-16.59-4.58-22.16,5.43l126.87.17c.11-18.2.11-34.57-.76-53.17-6.31,6.59-4.39,13.04-5.76,19.95-3.17,15.97-15.71,27.87-32.9,28.01l-42.29.36-.13-80.48c8.32-1.2,17.57-.85,24.79,1.74,10.64,3.82,6.05,13.39,15.12,21.61ZM522.65,168.58c-8.43,2.98-15.79-4.31-19.33,5.09l55.01.38c1.7.01,3.47-4.1,2.36-4.23l-3.48-.42-12.07-1.46V8.01c6.66-.73,11.98,1.55,17.67-3.57-15.67-1.06-28.82-1.05-44.14-.81l-49.18,139.6L416.9,3.57c-15.56-.2-28.72-.12-44.36.83,5.58,5.54,10.99,2.96,19.1,3.09v161.48c-7.84,1.21-13.51-3.18-17.53,4.37l36.31.84c.97.02,4.65-2.71,3.93-3.13s-2.64-1.46-3.57-1.55l-13.73-1.37.96-153.24,58.93,158.69c.9,2.42,6.83,2.32,7.63,1.14l57.27-162.65.8,156.52ZM727.98,147.21c12.3-13.78,17.74-29,16.72-46.83-.44-7.74-1.09-16.11-4.07-23.62-12.54-31.6-38.5-57.27-71.1-67.18-26.32-8-52.84-1.43-70.93,16.89-17.82,18.04-24.13,43.76-16.17,69.39,10.45,33.67,38.09,60.92,71.91,71.8,27.36,8.81,54.78.69,73.64-20.45ZM721.97,146.78c13.19-13.49,15.64-32.61,5-50.59-18.92-31.96-77.37-96.33-115.7-73.45-24.73,14.76-25.29,40.84-10.47,63.78,20.16,31.21,81.72,100.6,121.17,60.25Z"/>
    </mask>
  </defs>
  <rect width="748.25" height="177.78" fill="#fff" mask="url(#memo-cut)"/>
</svg>
