<?xml version="1.0" encoding="UTF-8"?>
<svg id="Camada_2" data-name="Camada 2" xmlns="http://www.w3.org/2000/svg" viewBox="0 0 748.25 177.78">
  <defs>
    <style>
      .cls-1 {
        fill: #fff;
      }
    </style>
  </defs>
  <g id="Layer_1" data-name="Layer 1">
    <g>
      <path class="cls-1" d="M0,177.78V0h748.25v177.78H0ZM149.91,169.36c-11.05.76-15.65-3.76-19.28,4.18l53.92.57c1.07.01,5-2.56,4.2-3.07-7.79-4.93-10.88,1.18-16.3-4.25l.06-158.73c7.19-.42,11.1.66,17.76-3.5-7.11-2.48-38.69-3.38-44.14-.92l-49.21,140.39L43.98,2.72c-14.95-.46-28.43-.03-43.81.96,5.21,7.17,11.02,3.15,18.78,4.09l.1,160.39c-6.08,2.28-12.2-2.37-17.59,5.14l39.06.86-.07-4.71-16.04-1.09.93-152.8,60.09,160.24c.8,2.13,7.08-2.2,7.77-4.15L149.5,10.76l.41,158.6ZM301.45,112c.8-18.77.8-34.6-.16-52.46-8.34,8.38-4.55,17.3-14.3,20.91-7.52,2.78-16.67,3.05-25.41,2.22V7.89s40.46-.25,40.46-.25c16.68-.1,28.67,10.1,32.68,25.97,1.5,5.93-2.06,12.53,6.14,17.76l.5-47.95-124.72.35c5.89,8.69,13.78,1.55,22,4.18v160.43c-8.21,3.53-16.59-4.58-22.16,5.43l126.87.17c.11-18.2.11-34.57-.76-53.17-6.31,6.59-4.39,13.04-5.76,19.95-3.17,15.97-15.71,27.87-32.9,28.01l-42.29.36-.13-80.48c8.32-1.2,17.57-.85,24.79,1.74,10.64,3.82,6.05,13.39,15.12,21.61ZM522.65,168.58c-8.43,2.98-15.79-4.31-19.33,5.09l55.01.38c1.7.01,3.47-4.1,2.36-4.23l-3.48-.42-12.07-1.46V8.01c6.66-.73,11.98,1.55,17.67-3.57-15.67-1.06-28.82-1.05-44.14-.81l-49.18,139.6L416.9,3.57c-15.56-.2-28.72-.12-44.36.83,5.58,5.54,10.99,2.96,19.1,3.09v161.48c-7.84,1.21-13.51-3.18-17.53,4.37l36.31.84c.97.02,4.65-2.71,3.93-3.13s-2.64-1.46-3.57-1.55l-13.73-1.37.96-153.24,58.93,158.69c.9,2.42,6.83,2.32,7.63,1.14l57.27-162.65.8,156.52ZM727.98,147.21c12.3-13.78,17.74-29,16.72-46.83-.44-7.74-1.09-16.11-4.07-23.62-12.54-31.6-38.5-57.27-71.1-67.18-26.32-8-52.84-1.43-70.93,16.89-17.82,18.04-24.13,43.76-16.17,69.39,10.45,33.67,38.09,60.92,71.91,71.8,27.36,8.81,54.78.69,73.64-20.45Z"/>
      <path class="cls-1" d="M149.91,169.36l-.41-158.6-56.29,160.88c-.68,1.95-6.97,6.29-7.77,4.15L25.35,15.55l-.93,152.8,16.04,1.09.07,4.71-39.06-.86c5.39-7.51,11.51-2.87,17.59-5.14l-.1-160.39C11.2,6.83,5.39,10.84.18,3.68c15.37-.99,28.85-1.41,43.81-.96l52.93,141.31L146.12,3.63c5.45-2.45,37.03-1.55,44.14.92-6.66,4.16-10.57,3.08-17.76,3.5l-.06,158.73c5.43,5.43,8.51-.68,16.3,4.25.8.51-3.13,3.08-4.2,3.07l-53.92-.57c3.63-7.94,8.24-3.42,19.28-4.18Z"/>
      <path class="cls-1" d="M522.65,168.58l-.8-156.52-57.27,162.65c-.81,1.18-6.74,1.28-7.63-1.14L398.01,14.88l-.96,153.24,13.73,1.37c.92.09,2.82,1.12,3.57,1.55s-2.96,3.15-3.93,3.13l-36.31-.84c4.02-7.55,9.68-3.16,17.52-4.37V7.49c-8.1-.13-13.51,2.45-19.09-3.09,15.64-.95,28.8-1.03,44.36-.83l52.59,139.67L518.67,3.64c15.32-.24,28.46-.26,44.14.81-5.69,5.12-11.01,2.84-17.67,3.57v159.93s12.07,1.46,12.07,1.46l3.48.42c1.11.13-.66,4.25-2.36,4.23l-55.01-.38c3.54-9.4,10.89-2.11,19.33-5.09Z"/>
      <path class="cls-1" d="M727.98,147.21c-18.86,21.14-46.29,29.26-73.64,20.45-33.82-10.89-61.45-38.14-71.91-71.8-7.96-25.63-1.65-51.34,16.17-69.39,18.09-18.32,44.62-24.89,70.93-16.89,32.6,9.91,58.56,35.58,71.1,67.18,2.98,7.51,3.63,15.88,4.07,23.62,1.02,17.83-4.43,33.05-16.72,46.83ZM721.97,146.78c13.19-13.49,15.64-32.61,5-50.59-18.92-31.96-77.37-96.33-115.7-73.45-24.73,14.76-25.29,40.84-10.47,63.78,20.16,31.21,81.72,100.6,121.17,60.25Z"/>
      <path class="cls-1" d="M301.45,112c-9.07-8.22-4.48-17.79-15.12-21.61-7.22-2.59-16.47-2.94-24.79-1.74l.13,80.48,42.29-.36c17.19-.15,29.73-12.04,32.9-28.01,1.37-6.9-.55-13.36,5.76-19.95.86,18.6.86,34.97.76,53.17l-126.87-.17c5.57-10.01,13.95-1.9,22.16-5.43V7.95c-8.21-2.63-16.1,4.51-22-4.18l124.72-.35-.5,47.95c-8.2-5.23-4.65-11.83-6.14-17.76-4.01-15.88-16.01-26.08-32.68-25.97l-40.47.25v74.77c8.74.84,17.89.57,25.41-2.22,9.75-3.61,5.96-12.53,14.3-20.91.96,17.87.96,33.69.16,52.46Z"/>
      <path class="cls-1" d="M721.97,146.78c-39.45,40.35-101.01-29.04-121.17-60.25-14.82-22.95-14.26-49.02,10.47-63.78,38.33-22.88,96.78,41.49,115.7,73.45,10.64,17.97,8.19,37.09-5,50.59Z"/>
    </g>
  </g>
</svg>
